<svg width="60" height="76" viewBox="0 0 60 76" fill="none" xmlns="http://www.w3.org/2000/svg">
<path d="M33.3793 29.6494C33.9235 28.1083 36.229 28.1083 36.7732 29.6494L39.9642 38.695C40.6666 40.6834 41.85 42.4901 43.4206 43.9719C44.9912 45.4536 46.9059 46.5697 49.0129 47.2316L58.5909 50.2437C60.2236 50.7573 60.2236 52.9335 58.5909 53.4472L49.0079 56.4593C46.9014 57.1223 44.9873 58.2393 43.4175 59.7219C41.8478 61.2044 40.6654 63.0117 39.9642 65.0006L36.7732 74.0415C36.6558 74.3789 36.4286 74.6728 36.1239 74.8811C35.8191 75.0895 35.4525 75.2016 35.0762 75.2016C34.7 75.2016 34.3333 75.0895 34.0286 74.8811C33.7238 74.6728 33.4966 74.3789 33.3793 74.0415L30.1882 64.9959C29.4864 63.0079 28.3037 61.2016 26.734 59.7199C25.1642 58.2382 23.2506 57.1218 21.1445 56.4593L11.5615 53.4472C11.204 53.3365 10.8927 53.122 10.672 52.8343C10.4513 52.5467 10.3324 52.2006 10.3324 51.8454C10.3324 51.4903 10.4513 51.1442 10.672 50.8565C10.8927 50.5689 11.204 50.3544 11.5615 50.2437L21.1445 47.2316C23.2506 46.569 25.1642 45.4527 26.734 43.971C28.3037 42.4893 29.4864 40.6829 30.1882 38.695L33.3793 29.6494ZM14.2677 5.83755C14.3386 5.63531 14.4753 5.45933 14.6582 5.33459C14.8412 5.20986 15.0612 5.14272 15.2868 5.14272C15.5125 5.14272 15.7325 5.20986 15.9154 5.33459C16.0984 5.45933 16.2351 5.63531 16.306 5.83755L18.2206 11.264C19.0765 13.683 21.0851 15.579 23.6479 16.3869L29.3967 18.1941C29.6109 18.2611 29.7974 18.3901 29.9295 18.5628C30.0616 18.7355 30.1328 18.9431 30.1328 19.1561C30.1328 19.3691 30.0616 19.5768 29.9295 19.7495C29.7974 19.9221 29.6109 20.0511 29.3967 20.1181L23.6479 21.9254C22.3832 22.3216 21.234 22.991 20.2918 23.8804C19.3496 24.7697 18.6403 25.8545 18.2206 27.0482L16.306 32.4747C16.2351 32.6769 16.0984 32.8529 15.9154 32.9776C15.7325 33.1024 15.5125 33.1695 15.2868 33.1695C15.0612 33.1695 14.8412 33.1024 14.6582 32.9776C14.4753 32.8529 14.3386 32.6769 14.2677 32.4747L12.3531 27.0482C11.9333 25.8545 11.2241 24.7697 10.2819 23.8804C9.3397 22.991 8.1905 22.3216 6.92583 21.9254L1.17702 20.1181C0.962771 20.0511 0.77633 19.9221 0.644186 19.7495C0.512043 19.5768 0.440918 19.3691 0.440918 19.1561C0.440918 18.9431 0.512043 18.7355 0.644186 18.5628C0.77633 18.3901 0.962771 18.2611 1.17702 18.1941L6.92583 16.3869C8.1905 15.9907 9.3397 15.3212 10.2819 14.4319C11.2241 13.5425 11.9333 12.4577 12.3531 11.264L14.2677 5.83755ZM49.2405 0.938818C49.2893 0.805848 49.3808 0.690547 49.5023 0.608943C49.6238 0.52734 49.7691 0.48349 49.9182 0.48349C50.0673 0.48349 50.2127 0.52734 50.3342 0.608943C50.4557 0.690547 50.5472 0.805848 50.596 0.938818L51.8725 4.55332C52.4414 6.16911 53.7821 7.43465 55.4939 7.97169L59.3231 9.17653C59.464 9.22263 59.5862 9.30901 59.6726 9.42367C59.7591 9.53833 59.8055 9.67557 59.8055 9.8163C59.8055 9.95704 59.7591 10.0943 59.6726 10.2089C59.5862 10.3236 59.464 10.41 59.3231 10.4561L55.4939 11.6609C54.6511 11.9271 53.8852 12.3744 53.2568 12.9676C52.6283 13.5608 52.1544 14.2837 51.8725 15.0793L50.596 18.6938C50.5472 18.8268 50.4557 18.9421 50.3342 19.0237C50.2127 19.1053 50.0673 19.1491 49.9182 19.1491C49.7691 19.1491 49.6238 19.1053 49.5023 19.0237C49.3808 18.9421 49.2893 18.8268 49.2405 18.6938L47.964 15.0793C47.682 14.2837 47.2081 13.5608 46.5797 12.9676C45.9513 12.3744 45.1854 11.9271 44.3426 11.6609L40.5183 10.4561C40.3774 10.41 40.2553 10.3236 40.1688 10.2089C40.0824 10.0943 40.0359 9.95704 40.0359 9.8163C40.0359 9.67557 40.0824 9.53833 40.1688 9.42367C40.2553 9.30901 40.3774 9.22263 40.5183 9.17653L44.3475 7.97169C46.0593 7.43465 47.4001 6.16911 47.969 4.55332L49.2405 0.938818Z" fill="#0D0C0C"/>
</svg>
