<svg width="30" height="24" viewBox="0 0 30 24" fill="none" xmlns="http://www.w3.org/2000/svg">
<path d="M24.9822 2.75942C23.1203 1.89147 21.1044 1.2615 19.0045 0.897525C18.9861 0.896937 18.9678 0.900392 18.9509 0.907648C18.9339 0.914904 18.9188 0.925785 18.9065 0.939523C18.6545 1.4015 18.3606 2.00346 18.1646 2.46544C15.9373 2.12946 13.6722 2.12946 11.445 2.46544C11.249 1.98946 10.955 1.4015 10.689 0.939523C10.675 0.911525 10.633 0.897525 10.591 0.897525C8.49111 1.2615 6.48923 1.89147 4.61333 2.75942C4.59933 2.75942 4.58533 2.77342 4.57133 2.78742C0.763547 8.4851 -0.286394 14.0288 0.231577 19.5165C0.231577 19.5445 0.245576 19.5725 0.273575 19.5865C2.79343 21.4344 5.2153 22.5543 7.60916 23.2963C7.65116 23.3103 7.69316 23.2963 7.70716 23.2683C8.26713 22.4983 8.7711 21.6864 9.20508 20.8324C9.23307 20.7764 9.20508 20.7204 9.14908 20.7064C8.35112 20.3984 7.59517 20.0345 6.85321 19.6145C6.79721 19.5865 6.79721 19.5025 6.83921 19.4605C6.9932 19.3485 7.14719 19.2225 7.30118 19.1105C7.32918 19.0825 7.37118 19.0825 7.39918 19.0965C12.2149 21.2944 17.4086 21.2944 22.1684 19.0965C22.1963 19.0825 22.2383 19.0825 22.2663 19.1105C22.4203 19.2365 22.5743 19.3485 22.7283 19.4745C22.7843 19.5165 22.7843 19.6005 22.7143 19.6285C21.9864 20.0625 21.2164 20.4124 20.4184 20.7204C20.3625 20.7344 20.3485 20.8044 20.3625 20.8464C20.8104 21.7004 21.3144 22.5123 21.8604 23.2823C21.9024 23.2963 21.9444 23.3103 21.9864 23.2963C24.3942 22.5543 26.8161 21.4344 29.3359 19.5865C29.3639 19.5725 29.3779 19.5445 29.3779 19.5165C29.9939 13.1748 28.356 7.67315 25.0382 2.78742C25.0242 2.77342 25.0102 2.75942 24.9822 2.75942ZM9.93303 16.1707C8.49112 16.1707 7.28718 14.8407 7.28718 13.2028C7.28718 11.5649 8.46312 10.235 9.93303 10.235C11.417 10.235 12.5929 11.5789 12.5789 13.2028C12.5789 14.8407 11.403 16.1707 9.93303 16.1707ZM19.6905 16.1707C18.2486 16.1707 17.0446 14.8407 17.0446 13.2028C17.0446 11.5649 18.2206 10.235 19.6905 10.235C21.1744 10.235 22.3503 11.5789 22.3363 13.2028C22.3363 14.8407 21.1744 16.1707 19.6905 16.1707Z" fill="#0D0C0C"/>
</svg>
