<?xml version="1.0" standalone="no"?>
<!DOCTYPE svg PUBLIC "-//W3C//DTD SVG 20010904//EN"
 "http://www.w3.org/TR/2001/REC-SVG-20010904/DTD/svg10.dtd">
<svg version="1.0" xmlns="http://www.w3.org/2000/svg"
 width="1024.000000pt" height="1024.000000pt" viewBox="0 0 1024.000000 1024.000000"
 preserveAspectRatio="xMidYMid meet">
<metadata>
Created by potrace 1.16, written by Peter Selinger 2001-2019
</metadata>
<g transform="translate(0.000000,1024.000000) scale(0.100000,-0.100000)"
fill="#000000" stroke="none">
<path d="M2660 7408 c0 -57 0 -1147 0 -2423 l-1 -2320 881 0 880 0 0 905 0
905 765 0 765 0 0 -902 0 -903 840 0 840 0 0 2420 0 2420 -837 -2 -838 -3 -2
-125 c0 -69 -2 -484 -2 -922 l-1 -798 -765 0 -765 0 0 925 0 925 -880 0 -880
0 0 -102z"/>
</g>
</svg>
