<svg width="60" height="57" viewBox="0 0 60 57" fill="none" xmlns="http://www.w3.org/2000/svg">
<path d="M59.4143 53.6797C59.4143 55.3943 58.0243 56.7843 56.3096 56.7843H3.38881C1.67417 56.7843 0.28418 55.3943 0.28418 53.6797C0.28418 51.965 1.67417 50.575 3.38881 50.575H56.3096C58.0243 50.575 59.4143 51.965 59.4143 53.6797ZM16.7092 29.2034C16.7092 25.5749 13.7677 22.6334 10.1392 22.6334C6.51068 22.6334 3.56918 25.5749 3.56918 29.2034V37.7958C3.56918 41.4243 6.51068 44.3658 10.1392 44.3658C13.7677 44.3658 16.7092 41.4243 16.7092 37.7958V29.2034ZM36.4192 16.7849C36.4192 13.1564 33.4777 10.2149 29.8492 10.2149C26.2207 10.2149 23.2792 13.1564 23.2792 16.7849V37.7958C23.2792 41.4243 26.2207 44.3658 29.8492 44.3658C33.4777 44.3658 36.4192 41.4243 36.4192 37.7958V16.7849ZM56.1293 7.471C56.1293 3.84249 53.1878 0.901001 49.5593 0.901001C45.9307 0.901001 42.9892 3.84249 42.9892 7.47101V37.7958C42.9892 41.4243 45.9307 44.3658 49.5593 44.3658C53.1878 44.3658 56.1293 41.4243 56.1293 37.7958V7.471Z" fill="#0D0C0C"/>
</svg>
