<svg width="26" height="23" viewBox="0 0 26 23" fill="none" xmlns="http://www.w3.org/2000/svg">
<path fill-rule="evenodd" clip-rule="evenodd" d="M23.016 0.73841C23.3275 0.607295 23.6685 0.562074 24.0034 0.607454C24.3384 0.652834 24.655 0.787156 24.9204 0.996439C25.1858 1.20572 25.3903 1.48231 25.5125 1.79743C25.6347 2.11254 25.6703 2.45466 25.6154 2.78817L22.7563 20.1304C22.479 21.8032 20.6435 22.7626 19.1094 21.9293C17.8261 21.2322 15.92 20.1581 14.2056 19.0375C13.3484 18.4765 10.7225 16.6801 11.0452 15.4019C11.3226 14.3089 15.7347 10.2018 18.2559 7.76002C19.2455 6.80069 18.7942 6.24729 17.6256 7.12971C14.7237 9.32066 10.0645 12.6525 8.52402 13.5904C7.16508 14.4173 6.45662 14.5585 5.60949 14.4173C4.06398 14.1601 2.63066 13.7618 1.46081 13.2765C-0.119996 12.6209 -0.0430987 10.4476 1.45955 9.81482L23.016 0.73841Z" fill="#0D0C0C"/>
</svg>
