<svg width="25" height="29" viewBox="0 0 25 29" fill="none" xmlns="http://www.w3.org/2000/svg">
<path d="M19.9059 5.15871C18.8366 3.93802 18.2474 2.37035 18.2478 0.747559H13.4143V20.1441C13.377 21.1938 12.9339 22.188 12.1782 22.9174C11.4225 23.6469 10.4132 24.0546 9.36294 24.0547C7.14172 24.0547 5.29592 22.2402 5.29592 19.9877C5.29592 17.2972 7.89256 15.2793 10.5674 16.1084V11.1654C5.17078 10.4458 0.446777 14.638 0.446777 19.9877C0.446777 25.1966 4.76408 28.9039 9.3473 28.9039C14.259 28.9039 18.2478 24.9151 18.2478 19.9877V10.1486C20.2078 11.5562 22.561 12.3114 24.9741 12.3073V7.47379C24.9741 7.47379 22.0333 7.61457 19.9059 5.15871Z" fill="#0D0C0C"/>
</svg>
