<svg width="68" height="47" viewBox="0 0 68 47" fill="none" xmlns="http://www.w3.org/2000/svg">
<path d="M6.30176 46.967C2.98805 46.967 0.301758 44.2807 0.301758 40.967V38.8735C0.301758 37.2355 0.749832 35.7305 1.64598 34.3584C2.54213 32.9864 3.73086 31.9381 5.21216 31.2135C8.38346 29.7201 11.6059 28.6005 14.8795 27.8547C18.1531 27.109 21.4779 26.7351 24.8538 26.7332C28.2297 26.7332 31.5544 27.107 34.828 27.8547C38.1016 28.6024 41.3241 29.722 44.4954 31.2135C45.9787 31.9362 47.1685 32.9845 48.0646 34.3584C48.9608 35.7324 49.4078 37.2374 49.4058 38.8735V40.967C49.4058 44.2807 46.7195 46.967 43.4058 46.967H6.30176ZM61.5438 46.967C58.2301 46.967 55.5438 44.2807 55.5438 40.967V38.2954C55.5438 36.1756 54.9177 34.1397 53.6656 32.1877C52.7228 30.7179 53.8963 28.1093 55.5689 28.6109C55.6117 28.6237 55.6545 28.6366 55.6973 28.6496C57.999 29.3491 60.1473 30.2038 62.1422 31.2135C63.9836 32.1771 65.3902 33.2485 66.362 34.4278C67.3339 35.6072 67.8198 36.8964 67.8198 38.2954V40.967C67.8198 44.2807 65.1335 46.967 61.8198 46.967H61.5438ZM24.8538 23.8426C21.4779 23.8426 18.5879 22.7105 16.1838 20.4462C13.7798 18.182 12.5778 15.4601 12.5778 12.2805C12.5778 9.10085 13.7798 6.37892 16.1838 4.11466C18.5879 1.85039 21.4779 0.718262 24.8538 0.718262C28.2297 0.718262 31.1197 1.85039 33.5237 4.11466C35.9278 6.37892 37.1298 9.10085 37.1298 12.2805C37.1298 15.4601 35.9278 18.182 33.5237 20.4462C31.1197 22.7105 28.2297 23.8426 24.8538 23.8426ZM55.5438 12.2805C55.5438 15.4601 54.3418 18.182 51.9377 20.4462C49.5337 22.7105 46.6437 23.8426 43.2678 23.8426C42.7051 23.8426 41.989 23.7829 41.1195 23.6634C40.1309 23.5276 39.7578 22.3709 40.3268 21.5511C41.0689 20.4818 41.6789 19.3427 42.1568 18.1338C42.8995 16.255 43.2698 14.3038 43.2678 12.2805C43.2678 10.2571 42.8975 8.30595 42.1568 6.42709C41.6823 5.22325 41.0758 4.08863 40.3375 3.02323C39.7439 2.16668 40.0825 0.931353 41.1195 0.828103C41.8356 0.756803 42.5517 0.720189 43.2678 0.718262C46.6437 0.718262 49.5337 1.85039 51.9377 4.11466C54.3418 6.37892 55.5438 9.10085 55.5438 12.2805Z" fill="#0D0C0C"/>
</svg>
