<svg width="28" height="20" viewBox="0 0 28 20" fill="none" xmlns="http://www.w3.org/2000/svg">
<path d="M11.4316 13.8741L18.4352 9.82587L11.4316 5.77759V13.8741ZM27.031 3.30814C27.2064 3.94237 27.3279 4.79251 27.4088 5.87205C27.5033 6.95159 27.5438 7.88269 27.5438 8.69235L27.6248 9.82587C27.6248 12.7811 27.4088 14.9537 27.031 16.3436C26.6937 17.5581 25.911 18.3407 24.6965 18.6781C24.0623 18.8535 22.9018 18.975 21.1205 19.0559C19.3663 19.1504 17.7605 19.1909 16.2761 19.1909L14.1305 19.2719C8.4764 19.2719 4.95439 19.0559 3.56449 18.6781C2.35 18.3407 1.56733 17.5581 1.22998 16.3436C1.05455 15.7094 0.933104 14.8592 0.852139 13.7797C0.757679 12.7001 0.717196 11.769 0.717196 10.9594L0.63623 9.82587C0.63623 6.87062 0.852139 4.69805 1.22998 3.30814C1.56733 2.09365 2.35 1.31099 3.56449 0.97363C4.19872 0.798205 5.35922 0.676756 7.14047 0.595791C8.89472 0.501331 10.5005 0.460848 11.9849 0.460848L14.1305 0.379883C19.7846 0.379883 23.3066 0.595791 24.6965 0.97363C25.911 1.31099 26.6937 2.09365 27.031 3.30814Z" fill="#0D0C0C"/>
</svg>
